<svg width="1007" height="843" viewBox="0 0 1007 843" fill="none" xmlns="http://www.w3.org/2000/svg">
<path opacity="0.79" d="M487.082 35.1316C502.506 39.4483 517.962 44.0422 533.434 48.7153C548.939 52.7019 564.477 56.4774 580.064 59.9624C595.732 62.5234 611.499 64.7939 627.363 66.8136C643.359 68.0413 659.534 69.2426 675.839 70.5495C692.374 71.4736 709.088 72.8068 725.982 74.6813C743.072 76.6219 760.341 79.3808 777.709 83.0111C795.224 87.0637 812.738 92.1593 830.122 98.2581C847.425 104.938 864.416 112.647 880.886 121.307C896.93 130.521 912.157 140.593 926.306 151.418C939.622 162.665 951.516 174.519 961.777 186.862C970.812 199.482 977.919 212.459 982.968 225.712C986.627 239.098 988.163 252.655 987.559 266.318C985.81 280.034 982.183 293.802 976.89 307.558C971.106 321.339 964.228 335.108 956.598 348.824C949.474 362.539 942.35 376.189 935.586 389.759C930.374 403.33 926.159 416.795 923.186 430.114C922.401 443.434 923.038 456.265 924.983 468.568C928.855 480.845 933.593 492.568 938.887 503.67C945.291 514.692 951.565 525.068 957.349 534.744C963.231 544.315 967.969 553.146 971.318 561.225C974.292 572.829 969.031 592.525 960.535 600.933C952.987 606.623 943.625 612.022 932.629 617.289C920.637 623.164 907.288 629.21 892.813 635.625C877.732 643.031 861.802 651.083 845.268 659.941C828.472 670.013 811.284 681.01 793.9 692.891C776.467 705.867 758.985 719.517 741.552 733.615C724.217 748.123 706.98 762.499 689.89 776.28C672.964 789.402 656.184 801.124 639.568 810.959C623.099 819.051 606.761 824.596 590.569 827.328C574.476 827.764 558.481 825.295 542.616 820.028C526.801 812.979 511.051 803.817 495.431 793.019C479.812 781.957 464.65 770.723 449.962 759.925C435.241 750.526 420.994 742.42 407.204 735.873C393.398 731.53 380.05 728.863 367.192 727.754C354.284 728.612 341.834 730.5 329.891 733.061C317.866 736.625 306.282 740.07 295.172 743.027C283.931 745.879 273.115 747.582 262.708 747.899C252.121 747.344 241.876 745.087 231.975 741.1C221.829 735.978 211.961 729.153 202.387 720.784C192.486 711.398 182.846 700.692 173.451 688.904C163.714 676.442 154.221 663.176 145.023 649.354C135.514 635.19 126.315 620.695 117.493 606.042C108.457 591.31 99.8798 576.565 91.825 561.912C83.7212 547.298 76.2383 532.83 69.4742 518.573C62.8245 504.396 56.9917 490.429 52.0902 476.674C47.4501 462.998 43.823 449.506 41.2742 436.24C39.1012 423.012 38.0555 409.957 38.2026 397.125C38.7581 384.307 40.4736 371.965 43.2838 360.15C46.4044 348.309 50.538 336.956 55.5866 326.118C60.7985 315.267 66.8274 304.904 73.5588 295.056C80.3065 285.156 87.6424 275.744 95.5012 266.807C103.197 257.764 111.333 249.157 119.829 240.933C128.031 232.524 136.559 224.405 145.349 216.551C153.796 208.366 162.505 200.314 171.474 192.327C180.101 183.892 189.022 175.404 198.22 166.837C207.125 157.715 216.389 148.461 225.996 139.062C235.406 129.148 245.226 119.155 255.47 109.162C265.583 98.8653 276.187 88.7403 287.248 78.9452C298.244 69.2294 309.746 60.1208 321.738 51.8307C333.698 44.0554 346.164 37.3757 359.088 31.9766C372.011 27.4091 385.409 24.2805 399.231 22.6436C413.053 21.8911 427.3 22.5512 441.956 24.5709C456.595 27.1319 471.643 30.7093 487.066 35.1184" stroke="#E1F5FE" stroke-opacity="0.12" stroke-linecap="round"/>
<path opacity="0.68" d="M523.795 49.1945C538.336 54.2988 552.932 59.7106 567.586 65.2051C582.329 70.0562 597.183 74.7549 612.143 79.1818C627.244 82.7564 642.516 86.0497 657.906 89.1115C673.495 91.4039 689.27 93.6406 705.169 95.9375C721.254 97.8082 737.489 100.018 753.801 102.656C770.244 105.302 786.724 108.638 803.154 112.738C819.589 117.156 835.845 122.504 851.792 128.761C867.533 135.495 882.733 143.178 897.25 151.735C911.233 160.777 924.263 170.612 936.103 181.134C947.073 192.042 956.602 203.517 964.454 215.426C971.174 227.561 976.062 240.028 978.985 252.688C980.669 265.462 980.409 278.363 978.231 291.287C975.067 304.248 970.249 317.206 963.98 330.096C957.348 343.004 949.771 355.858 941.548 368.609C933.893 381.419 926.228 394.15 918.916 406.781C913.038 419.507 908.052 432.139 904.174 444.648C902.284 457.271 901.694 469.452 902.309 481.16C904.687 492.928 907.897 504.174 911.681 514.845C916.546 525.524 921.368 535.566 925.874 544.915C930.564 554.221 934.334 562.8 936.974 570.639C939.292 581.967 934.307 601.335 926.627 609.75C919.788 615.474 911.232 620.98 901.126 626.412C890.02 632.421 877.553 638.631 863.891 645.21C849.513 652.673 834.197 660.745 818.1 669.514C801.585 679.317 784.529 689.871 767.085 701.116C749.468 713.212 731.65 725.747 713.761 738.516C695.906 751.472 678.08 764.085 660.433 775.968C642.934 787.091 625.691 796.787 608.742 804.62C592.054 810.774 575.705 814.553 559.751 815.693C544.041 814.784 528.677 811.221 513.718 805.1C498.912 797.413 484.389 787.797 470.16 776.689C455.937 765.33 442.204 753.801 428.929 742.642C415.533 732.693 402.496 723.876 389.812 716.456C376.924 710.996 364.36 707.077 352.144 704.606C339.702 703.976 327.611 704.384 315.915 705.53C304.045 707.724 292.578 709.994 281.559 711.999C270.403 714.089 259.698 715.317 249.451 715.434C239.064 714.907 229.13 712.938 219.638 709.471C209.97 705.029 200.698 699.048 191.815 691.619C182.704 683.239 173.934 673.567 165.508 662.79C156.831 651.311 148.475 638.977 140.439 625.973C132.178 612.559 124.282 598.702 116.753 584.589C109.092 570.296 101.866 555.909 95.1791 541.526C88.4622 527.115 82.3578 512.818 76.9263 498.692C71.6544 484.615 67.1521 470.728 63.5266 457.115C60.1922 443.545 57.8009 430.241 56.4505 417.208C55.489 404.224 55.6011 391.513 56.8495 379.105C58.5066 366.707 61.2421 354.899 64.9944 343.64C69.0727 332.399 74.0862 321.701 79.9535 311.542C86.0036 301.353 92.7934 291.696 100.244 282.54C107.717 273.306 115.738 264.553 124.245 256.238C132.617 247.783 141.397 239.708 150.493 231.969C159.347 223.992 168.506 216.27 177.913 208.721C187.004 200.836 196.367 193.033 205.956 185.27C215.258 177.04 224.827 168.759 234.663 160.414C244.25 151.552 254.171 142.603 264.395 133.579C274.443 124.121 284.868 114.658 295.679 105.284C306.343 95.7153 317.408 86.4215 328.878 77.561C340.254 68.8407 352.01 60.8302 364.167 53.6763C376.226 47.0727 388.662 41.5889 401.446 37.3691C414.126 33.9637 427.159 31.9548 440.508 31.3932C453.769 31.6471 467.337 33.2683 481.234 36.1787C495.071 39.5886 509.249 43.9708 523.78 49.1804" stroke="#E1F5FE" stroke-opacity="0.12" stroke-linecap="round"/>
<path opacity="0.1" d="M558.971 65.6207C572.584 71.4488 586.263 77.5644 600.02 83.7957C613.91 89.4556 627.958 94.9735 642.155 100.295C656.546 104.799 671.142 109.073 685.879 113.11C700.857 116.429 715.997 119.672 731.267 122.93C746.716 125.729 762.235 128.789 777.757 132.209C793.362 135.532 808.898 139.434 824.222 143.979C839.475 148.742 854.391 154.292 868.823 160.628C882.957 167.342 896.415 174.899 909.014 183.211C921.048 191.925 932.001 201.341 941.675 211.37C950.501 221.716 957.838 232.558 963.557 243.773C968.2 255.199 971.098 266.878 972.172 278.708C972.157 290.626 970.363 302.62 966.838 314.603C962.517 326.613 956.716 338.588 949.631 350.455C942.324 362.364 934.203 374.205 925.544 385.919C917.445 397.736 909.375 409.477 901.617 421.134C895.183 432.956 889.537 444.708 884.864 456.372C882.003 468.244 880.298 479.728 879.726 490.782C880.738 502.018 882.545 512.772 884.938 523.007C888.342 533.317 891.799 543.033 895.07 552.128C898.587 561.225 901.397 569.654 903.283 577.417C904.832 588.701 899.701 608.326 892.54 617.051C886.214 623.005 878.301 628.778 868.894 634.512C858.522 640.762 846.761 647.213 833.806 653.98C820.054 661.523 805.275 669.561 789.623 678.152C773.459 687.591 756.621 697.58 739.285 708.058C721.676 719.145 703.765 730.45 685.72 741.767C667.661 753.069 649.623 763.879 631.782 773.846C614.12 782.98 596.781 790.658 579.869 796.558C563.302 800.871 547.241 802.962 531.753 802.639C516.653 800.48 502.108 795.919 488.114 789.06C474.394 780.833 461.114 770.857 448.22 759.524C435.381 747.972 423.053 736.238 411.148 724.819C399.043 714.444 387.226 705.062 375.676 696.884C363.767 690.465 352.061 685.428 340.584 681.712C328.727 679.699 317.136 678.703 305.82 678.485C294.22 679.327 282.961 680.383 272.13 681.354C261.073 682.579 250.487 683.191 240.398 682.94C230.155 682.259 220.432 680.397 211.198 677.258C201.854 673.333 193.001 668.024 184.609 661.408C176.084 653.95 167.99 645.262 160.331 635.504C152.501 625.032 145.055 613.685 138.032 601.626C130.842 589.108 124.055 576.076 117.71 562.695C111.258 549.075 105.302 535.259 99.8667 521.396C94.4633 507.443 89.6607 493.545 85.5284 479.778C81.5416 466.027 78.3313 452.459 75.9486 439.16C73.8547 425.906 72.6692 412.93 72.4522 400.265C72.6349 387.673 73.837 375.384 76.1 363.444C78.7813 351.565 82.4614 340.294 87.0757 329.623C92.0181 318.964 97.816 308.882 104.407 299.358C111.183 289.816 118.662 280.78 126.728 272.252C134.843 263.636 143.492 255.455 152.564 247.683C161.548 239.753 170.905 232.146 180.571 224.842C190.055 217.263 199.816 209.89 209.816 202.663C219.581 195.077 229.585 187.544 239.801 180.023C249.795 172.076 260.045 164.079 270.534 156.042C280.804 147.553 291.38 139.02 302.256 130.467C312.944 121.573 323.963 112.771 335.299 104.138C346.487 95.4076 357.993 87.0209 369.82 79.1642C381.494 71.5166 393.467 64.6101 405.709 58.6143C417.787 53.1731 430.128 48.8687 442.681 45.8019C455.065 43.5025 467.673 42.562 480.483 43.0047C493.128 44.2018 505.992 46.6906 519.083 50.4189C532.082 54.5766 545.376 59.688 558.957 65.6058" stroke="#E1F5FE" stroke-opacity="0.12" stroke-linecap="round"/>
<path opacity="0.54" d="M592.112 84.3204C604.753 90.7669 617.447 97.5194 630.24 104.397C643.191 110.749 656.309 117.035 669.594 123.134C683.139 128.509 696.876 133.66 710.78 138.624C724.953 142.893 739.268 147.064 753.67 151.224C768.263 154.917 782.876 158.789 797.416 162.932C812.004 166.894 826.417 171.326 840.507 176.282C854.487 181.341 867.993 187.046 880.889 193.415C893.418 200.031 905.176 207.35 915.961 215.311C926.144 223.586 935.17 232.443 942.889 241.816C949.79 251.438 955.21 261.479 959.04 271.838C961.901 282.325 963.114 293.04 962.614 303.849C961.19 314.741 958.153 325.664 953.556 336.545C948.299 347.461 941.751 358.328 934.084 369.068C926.277 379.892 917.793 390.626 908.836 401.25C900.444 412.013 892.066 422.725 883.987 433.38C877.105 444.243 870.913 455.091 865.588 465.887C861.859 476.959 859.181 487.728 857.518 498.133C857.293 508.787 857.829 519.034 858.901 528.833C860.938 538.773 863.093 548.206 865.145 557.082C867.514 566.026 869.319 574.387 870.382 582.145C870.997 593.54 865.207 613.814 858.262 623.032C852.246 629.32 844.752 635.446 835.83 641.54C825.986 648.081 814.801 654.768 802.393 661.716C789.202 669.283 774.928 677.216 759.731 685.543C743.945 694.51 727.429 703.837 710.373 713.434C692.984 723.406 675.239 733.396 657.327 743.196C639.392 752.83 621.491 761.835 603.793 769.89C586.337 777.095 569.28 782.858 552.729 786.913C536.616 789.504 521.132 790.045 506.346 788.397C492.047 785.106 478.421 779.664 465.503 772.183C452.92 763.506 440.883 753.276 429.33 741.793C417.821 730.142 406.848 718.301 396.289 706.721C385.459 696.038 374.87 686.208 364.456 677.421C353.581 670.174 342.801 664.145 332.15 659.326C321.008 656.043 310.009 653.729 299.201 652.205C288 651.72 277.082 651.554 266.511 651.461C255.679 651.728 245.253 651.594 235.33 650.831C225.253 649.825 215.68 647.867 206.667 644.872C197.552 641.251 188.984 636.457 180.958 630.501C172.859 623.816 165.26 616.003 158.162 607.184C150.99 597.703 144.297 587.361 138.069 576.275C131.763 564.731 125.941 552.622 120.609 540.112C115.235 527.325 110.381 514.277 106.093 501.112C101.855 487.82 98.2357 474.527 95.2942 461.325C92.5228 448.112 90.4953 435.055 89.271 422.245C88.3217 409.47 88.2646 396.984 89.1282 384.807C90.3524 372.719 92.5612 360.951 95.7888 349.562C99.3963 338.252 103.945 327.551 109.332 317.469C115.045 307.416 121.556 297.946 128.775 289.018C136.196 280.085 144.272 271.644 152.89 263.674C161.597 255.626 170.78 247.984 180.387 240.699C189.935 233.255 199.844 226.09 210.053 219.18C220.132 212.004 230.471 204.981 241.061 198.083C251.458 190.841 262.098 183.627 272.946 176.45C283.603 168.861 294.516 161.249 305.651 153.622C316.615 145.628 327.834 137.623 339.3 129.689C350.586 121.494 362.164 113.457 373.974 105.677C385.608 97.8665 397.495 90.4912 409.596 83.6931C421.477 77.1539 433.585 71.3967 445.831 66.568C457.846 62.2934 470.014 59.139 482.28 57.1896C494.29 55.952 506.405 56.0153 518.622 57.3925C530.61 59.4454 542.736 62.7376 554.989 67.1859C567.123 72.0187 579.479 77.7809 592.096 84.3177" stroke="#E1F5FE" stroke-opacity="0.12" stroke-linecap="round"/>
<path opacity="0.32" d="M622.672 105.115C634.303 112.098 645.964 119.378 657.705 126.813C669.65 133.775 681.744 140.702 694.007 147.49C706.542 153.613 719.275 159.563 732.175 165.332C745.343 170.449 758.646 175.474 771.988 180.439C785.549 184.934 799.05 189.551 812.439 194.335C825.859 198.893 839.017 203.801 851.76 209.108C864.373 214.397 876.422 220.214 887.778 226.543C898.747 233 908.849 240.025 917.933 247.566C926.421 255.299 933.712 263.52 939.689 272.135C944.889 280.925 948.657 290.054 950.896 299.416C952.271 308.863 952.103 318.486 950.361 328.18C947.825 337.908 943.816 347.662 938.435 357.356C932.512 367.088 925.454 376.761 917.408 386.34C909.32 395.991 900.604 405.591 891.511 415.103C882.954 424.782 874.417 434.452 866.131 444.084C858.924 453.983 852.297 463.922 846.41 473.841C841.945 484.107 838.42 494.125 835.787 503.886C834.446 513.934 833.781 523.661 833.653 533.031C834.387 542.604 835.287 551.762 836.149 560.458C837.343 569.272 838.123 577.578 838.296 585.397C837.784 596.973 830.801 618.057 823.747 627.813C817.827 634.453 810.53 640.95 801.9 647.368C792.432 654.181 781.659 661.074 769.698 668.1C756.965 675.62 743.152 683.353 728.424 691.312C713.097 699.709 697.029 708.275 680.379 716.898C663.408 725.706 646.087 734.35 628.592 742.624C611.084 750.605 593.642 757.833 576.435 764.071C559.522 769.444 543.058 773.423 527.18 775.767C511.795 776.783 497.115 775.929 483.227 773.104C469.889 768.84 457.325 762.655 445.542 754.674C434.151 745.644 423.355 735.241 413.114 723.717C402.928 712.041 393.265 700.186 383.985 688.544C374.417 677.659 365.018 667.487 355.752 658.225C345.95 650.268 336.165 643.4 326.418 637.614C316.082 633.187 305.81 629.669 295.638 626.916C284.973 625.162 274.523 623.801 264.331 622.624C253.818 621.867 243.671 620.893 233.965 619.5C224.088 618.012 214.728 615.794 205.902 612.751C197.002 609.252 188.663 604.757 180.912 599.286C173.141 593.207 165.916 586.127 159.277 578.127C152.604 569.555 146.485 560.151 140.91 550.036C135.328 539.466 130.287 528.335 125.799 516.756C121.327 504.893 117.42 492.736 114.12 480.405C110.916 467.945 108.351 455.414 106.454 442.917C104.764 430.413 103.793 418.036 103.623 405.847C103.736 393.723 104.677 381.849 106.513 370.28C108.705 358.809 111.822 347.65 115.905 336.883C120.353 326.187 125.649 316.115 131.739 306.629C138.148 297.203 145.276 288.33 153.067 279.983C161.079 271.634 169.668 263.763 178.797 256.334C188.008 248.815 197.694 241.682 207.773 234.875C217.828 227.897 228.253 221.17 238.956 214.66C249.576 207.911 260.476 201.282 271.624 194.766C282.617 187.925 293.849 181.126 305.306 174.367C316.601 167.253 328.134 160.14 339.859 153.058C351.435 145.68 363.232 138.354 375.22 131.155C387.05 123.782 399.077 116.62 411.27 109.799C423.279 103.017 435.42 96.7201 447.7 91.0327C459.721 85.6419 471.843 81.0583 483.991 77.4014C495.859 74.284 507.754 72.2311 519.651 71.3605C531.232 71.1308 542.797 72.1341 554.36 74.374C565.674 77.2153 577.013 81.2171 588.406 86.3034C599.656 91.741 611.057 98.0386 622.656 105.111" stroke="#E1F5FE" stroke-opacity="0.12" stroke-linecap="round"/>
<path opacity="0.68" d="M650.12 127.733C660.702 135.155 671.289 142.874 681.926 150.748C692.786 158.21 703.771 165.667 714.888 173.023C726.312 179.781 737.902 186.405 749.638 192.862C761.65 198.712 773.78 204.456 785.907 210.128C798.249 215.331 810.501 220.576 822.569 225.922C834.688 231.002 846.478 236.307 857.818 241.872C869.002 247.363 879.587 253.211 889.403 259.448C898.862 265.706 907.394 272.392 914.905 279.449C921.832 286.601 927.583 294.12 932.045 301.945C935.812 309.844 938.179 317.989 939.123 326.315C939.321 334.673 938.051 343.157 935.375 351.673C932.015 360.197 927.327 368.734 921.411 377.215C915.079 385.728 907.742 394.195 899.534 402.585C891.332 411.077 882.595 419.521 873.508 427.932C864.909 436.53 856.336 445.15 847.963 453.787C840.53 462.732 833.591 471.739 827.269 480.803C822.169 490.244 817.892 499.522 814.407 508.628C812.042 518.066 810.305 527.27 809.018 536.213C808.538 545.41 808.226 554.277 807.907 562.777C807.928 571.447 807.628 579.714 806.816 587.574C805.044 599.341 796.387 621.144 788.95 631.396C782.911 638.35 775.643 645.135 767.133 651.818C757.857 658.808 747.381 665.794 735.763 672.805C723.443 680.17 710.087 687.594 695.835 695.074C681.04 702.829 665.533 710.541 649.446 718.151C633.095 725.766 616.411 733.044 599.591 739.817C582.791 746.202 566.084 751.771 549.675 756.303C533.583 759.987 517.981 762.326 503.031 763.157C488.613 762.781 474.953 760.703 462.136 756.851C449.914 751.769 438.501 744.986 427.898 736.616C417.716 727.358 408.181 716.871 399.216 705.401C390.319 693.782 381.913 682 373.884 670.385C365.537 659.394 357.331 649.007 349.201 639.375C340.499 630.88 331.763 623.304 322.96 616.678C313.542 611.248 304.113 606.645 294.667 602.767C284.695 599.817 274.835 597.308 265.162 595.037C255.124 593.263 245.38 591.379 236.022 589.258C226.441 587.169 217.351 584.538 208.776 581.271C200.109 577.71 192.015 573.349 184.521 568.167C177.029 562.522 170.123 556.01 163.842 548.699C157.575 540.9 151.916 532.34 146.871 523.118C141.857 513.483 137.454 503.312 133.641 492.684C129.932 481.792 126.818 470.584 124.344 459.158C121.998 447.602 120.323 435.95 119.346 424.294C118.587 412.619 118.544 401.015 119.284 389.603C120.302 378.231 122.144 367.075 124.843 356.217C127.879 345.459 131.793 334.99 136.619 324.89C141.818 314.887 147.78 305.464 154.476 296.609C161.469 287.829 169.15 279.563 177.438 271.8C185.947 264.048 195.018 256.743 204.57 249.835C214.239 242.863 224.365 236.224 234.857 229.891C245.38 223.412 256.257 217.151 267.426 211.089C278.542 204.801 289.932 198.636 301.556 192.569C313.097 186.224 324.875 179.935 336.842 173.688C348.69 167.167 360.764 160.685 372.995 154.278C385.085 147.646 397.352 141.123 409.762 134.783C421.995 128.335 434.378 122.169 446.844 116.395C459.063 110.702 471.371 105.541 483.686 101.015C495.72 96.8004 507.734 93.395 519.703 90.8906C531.316 88.8994 542.85 87.9252 554.278 88.0594C565.349 88.7903 576.334 90.6634 587.192 93.6944C597.762 97.2444 608.296 101.867 618.796 107.52C629.13 113.462 639.556 120.232 650.105 127.729" stroke="#E1F5FE" stroke-opacity="0.12" stroke-linecap="round"/>
<path opacity="0.71" d="M673.981 151.819C683.489 159.578 692.977 167.633 702.456 175.83C712.16 183.689 721.967 191.557 731.866 199.356C742.081 206.619 752.43 213.772 762.866 220.768C773.61 227.21 784.415 233.544 795.2 239.784C806.204 245.568 817.075 251.332 827.736 257.121C838.461 262.601 848.806 268.218 858.675 273.98C868.412 279.592 877.503 285.433 885.831 291.517C893.819 297.536 900.908 303.85 906.963 310.411C914.704 320.378 923.241 341.392 923.78 352.258C923.049 359.549 920.99 366.879 917.644 374.232C913.728 381.581 908.635 388.921 902.42 396.215C895.921 403.536 888.492 410.822 880.321 418.057C872.178 425.402 863.553 432.746 854.605 440.088C846.121 447.628 837.611 455.245 829.236 462.911C821.696 470.911 814.543 479.021 807.871 487.264C802.263 495.879 797.355 504.43 793.092 512.883C789.834 521.687 787.075 530.369 784.744 538.859C783.094 547.64 781.623 556.196 780.145 564.475C779.014 572.967 777.596 581.138 775.776 589.003C773.882 597 771.321 604.682 767.975 612.036C764.243 619.538 759.559 626.752 753.862 633.728C747.567 640.877 740.158 647.838 731.645 654.658C722.462 661.683 712.178 668.626 700.845 675.491C688.893 682.566 675.994 689.571 662.272 696.479C648.094 703.497 633.24 710.312 617.891 716.86C602.323 723.285 586.476 729.246 570.547 734.584C554.683 739.483 538.972 743.496 523.568 746.477C508.554 748.66 494.047 749.549 480.229 749.039C466.966 747.471 454.473 744.36 442.858 739.671C431.828 733.936 421.636 726.695 412.266 718.075C403.319 708.696 395.028 698.239 387.305 686.888C379.65 675.416 372.477 663.788 365.647 652.283C358.491 641.298 351.462 630.793 344.451 620.931C336.865 612.004 329.195 603.872 321.419 596.54C312.986 590.259 304.466 584.712 295.898 579.829C286.73 575.799 277.613 572.193 268.613 568.89C259.171 566.092 249.97 563.309 241.078 560.393C227.594 556.037 202.762 544.876 191.677 537.629C184.473 532.229 177.877 526.123 171.934 519.328C166.023 512.154 160.759 504.303 156.138 495.876C151.617 487.108 147.727 477.818 144.497 468.116C141.38 458.179 138.927 447.92 137.135 437.438C135.52 426.832 134.585 416.098 134.374 405.351C134.374 394.58 135.122 383.85 136.63 373.265C138.427 362.742 141.022 352.394 144.45 342.32C148.19 332.33 152.785 322.637 158.266 313.252C164.068 303.998 170.613 295.275 177.821 287.068C185.333 278.958 193.454 271.329 202.177 264.166C211.105 257.019 220.558 250.281 230.483 243.917C240.53 237.495 251.024 231.396 261.876 225.557C272.787 219.61 284.031 213.87 295.576 208.298C307.112 202.549 318.909 196.909 330.939 191.398C342.928 185.639 355.119 179.969 367.518 174.375C379.796 168.548 392.269 162.821 404.872 157.214C417.342 151.428 429.945 145.821 442.633 140.448C455.129 135.034 467.693 129.948 480.256 125.282C492.591 120.735 504.887 116.739 517.107 113.396C529.007 110.371 540.798 108.117 552.437 106.748C563.697 105.835 574.793 105.891 585.656 106.976C596.166 108.599 606.486 111.268 616.59 115.001C626.409 119.181 636.081 124.365 645.661 130.485C655.071 136.847 664.497 143.982 673.966 151.814" stroke="#E1F5FE" stroke-opacity="0.12" stroke-linecap="round"/>
<path opacity="0.16" d="M693.859 176.942C702.276 184.948 710.617 193.205 718.916 201.64C727.432 209.748 735.997 217.893 744.615 225.987C753.557 233.621 762.584 241.157 771.652 248.547C781.031 255.442 790.437 262.214 799.774 268.866C809.361 275.086 818.767 281.244 827.941 287.36C837.193 293.136 846.064 298.955 854.428 304.84C862.72 310.498 870.357 316.276 877.229 322.171C886.708 330.893 900.228 348.957 903.911 358.248C905.628 367.539 902.22 386.338 897.12 395.724C892.913 401.96 887.624 408.175 881.342 414.349C874.841 420.547 867.521 426.719 859.522 432.88C851.6 439.15 843.216 445.444 834.531 451.772C826.247 458.335 817.923 464.984 809.639 471.742C802.095 478.836 794.816 486.09 787.889 493.512C781.883 501.334 776.41 509.163 771.494 516.964C767.426 525.135 763.748 533.25 760.432 541.267C757.726 549.594 755.135 557.777 752.55 565.782C750.264 574.007 747.753 582.014 744.884 589.777C742.003 597.698 738.532 605.363 734.398 612.77C729.952 620.311 724.674 627.596 718.514 634.646C711.859 641.827 704.232 648.795 695.633 655.58C686.466 662.493 676.332 669.241 665.277 675.813C653.7 682.472 641.282 688.946 628.148 695.185C614.643 701.396 600.565 707.299 586.063 712.777C571.446 718.04 556.608 722.743 541.729 726.754C527.008 730.278 512.459 732.903 498.269 734.515C484.509 735.369 471.269 735.025 458.727 733.381C446.761 730.818 435.561 726.879 425.218 721.543C415.471 715.313 406.54 707.773 398.407 699.006C390.691 689.641 383.625 679.3 377.108 668.162C370.661 656.92 364.679 645.536 358.987 634.218C353.009 623.33 347.104 612.833 341.203 602.833C334.753 593.629 328.169 585.071 321.443 577.2C314.078 570.206 306.557 563.864 298.941 558.11C290.713 553.109 282.461 548.533 274.242 544.271C261.314 538.666 236.17 527.752 224.305 521.83C212.722 515.431 192.261 499.851 183.536 490.497C178.003 483.79 173.111 476.537 168.896 468.769C164.778 460.743 161.342 452.249 158.593 443.394C155.99 434.348 154.048 425.004 152.845 415.443C151.799 405.784 151.475 395.99 151.89 386.172C152.525 376.33 153.898 366.523 156.056 356.818C158.467 347.178 161.676 337.706 165.711 328.442C170.034 319.303 175.173 310.415 181.179 301.813C187.473 293.336 194.479 285.349 202.119 277.832C210.003 270.421 218.507 263.445 227.558 256.901C236.805 250.398 246.573 244.255 256.78 238.454C267.127 232.639 277.895 227.111 289.019 221.828C300.22 216.459 311.749 211.292 323.557 206.292C335.4 201.156 347.494 196.145 359.816 191.263C372.095 186.198 384.596 181.243 397.246 176.399C409.815 171.399 422.533 166.51 435.353 161.799C448.025 156.979 460.776 152.374 473.561 148.053C486.148 143.721 498.729 139.761 511.235 136.248C523.458 132.882 535.595 130.063 547.568 127.907C559.195 126.021 570.625 124.903 581.806 124.607C592.613 124.732 603.138 125.755 613.387 127.722C623.239 130.145 632.835 133.537 642.148 137.885C651.161 142.627 659.965 148.268 668.591 154.761C677.064 161.457 685.466 168.872 693.845 176.936" stroke="#E1F5FE" stroke-opacity="0.12" stroke-linecap="round"/>
<path opacity="0.7" d="M709.443 202.604C716.763 210.735 723.951 219.111 731.047 227.628C738.359 235.895 745.675 244.181 752.981 252.43C760.607 260.296 768.261 268.051 775.916 275.682C783.898 282.871 791.845 289.932 799.7 296.837C807.798 303.335 815.716 309.742 823.373 316.061C831.132 322.027 838.515 327.957 845.403 333.852C855.362 342.317 871.519 359.089 877.301 367.434C881.613 375.606 884.422 391.944 882.776 400.022C879.408 408.001 866.924 423.723 858.092 431.471C851.746 436.662 844.683 441.83 836.972 447.011C829.386 452.304 821.354 457.648 812.997 463.062C805.023 468.702 796.931 474.469 788.843 480.379C781.367 486.617 774.042 493.058 766.941 499.707C760.614 506.751 754.705 513.853 749.201 521.005C744.415 528.525 739.951 536.053 735.717 543.558C732.032 551.375 728.422 559.121 724.782 566.758C721.434 574.638 717.864 582.357 713.986 589.903C710.116 597.61 705.742 605.122 700.795 612.403C695.62 619.802 689.731 626.977 683.07 633.929C676.039 640.957 668.154 647.767 659.456 654.333C650.301 660.963 640.309 667.353 629.535 673.483C618.349 679.621 606.473 685.454 593.98 690.94C581.244 696.317 568.032 701.264 554.507 705.722C540.932 709.874 527.235 713.416 513.574 716.196C500.112 718.5 486.877 719.92 474.04 720.34C461.639 720.078 449.782 718.703 438.615 716.15C428.018 712.795 418.168 708.214 409.162 702.407C400.719 695.857 393.048 688.172 386.153 679.398C379.65 670.123 373.766 660.008 368.414 649.165C363.145 638.239 358.271 627.156 353.684 616.126C348.826 605.442 344.021 595.035 339.224 585.038C333.87 575.678 328.401 566.837 322.748 558.574C316.483 551.044 310.035 544.046 303.439 537.581C296.254 531.769 288.978 526.346 281.692 521.231C270.097 514.336 247.226 501.224 236.335 494.516C225.605 487.578 206.588 471.766 198.515 462.718C193.377 456.343 188.91 449.529 185.088 442.311C181.379 434.901 178.369 427.115 176.04 419.004C173.865 410.769 172.408 402.26 171.67 393.573C171.102 384.816 171.284 375.943 172.198 367.022C173.331 358.119 175.212 349.223 177.875 340.415C180.776 331.698 184.469 323.104 188.962 314.7C193.726 306.419 199.298 298.365 205.698 290.561C212.375 282.899 219.717 275.67 227.666 268.877C235.836 262.196 244.602 255.915 253.878 250.019C263.36 244.181 273.314 238.678 283.704 233.507C294.221 228.323 305.167 223.406 316.442 218.735C327.806 213.999 339.489 209.474 351.458 205.126C363.456 200.668 375.698 196.367 388.144 192.2C400.56 187.924 413.187 183.773 425.928 179.773C438.58 175.664 451.359 171.715 464.185 167.977C476.877 164.186 489.591 160.641 502.273 157.407C514.743 154.222 527.13 151.415 539.38 149.054C551.368 146.856 563.154 145.211 574.718 144.171C585.923 143.416 596.841 143.374 607.46 144.084C617.672 145.165 627.569 147.068 637.079 149.836C646.233 152.985 655.046 156.99 663.513 161.88C671.685 167.073 679.6 173.087 687.252 179.857C694.765 186.806 702.138 194.402 709.429 202.596" stroke="#E1F5FE" stroke-opacity="0.12" stroke-linecap="round"/>
<path opacity="0.19" d="M720.558 228.27C726.778 236.429 732.831 244.816 738.738 253.296C744.842 261.582 750.891 269.885 756.896 278.145C763.202 286.076 769.491 293.915 775.732 301.627C782.287 308.952 788.767 316.134 795.139 323.169C801.751 329.807 808.175 336.317 814.33 342.699C823.572 351.704 839.878 368.812 846.519 376.976C855.773 392.315 859.945 414.189 857.59 421.116C853.808 427.849 841.202 440.972 832.639 447.386C823.207 453.841 801.513 466.984 789.759 473.828C782.146 478.643 774.361 483.602 766.503 488.73C759.162 494.183 751.875 499.864 744.666 505.772C738.124 512.061 731.849 518.458 725.881 524.941C720.496 531.786 715.334 538.699 710.316 545.631C705.765 552.874 701.224 560.107 696.637 567.279C692.317 574.693 687.78 582.01 682.961 589.192C678.186 596.548 672.968 603.722 667.261 610.72C661.394 617.804 654.918 624.689 647.812 631.33C640.416 638.044 632.314 644.487 623.52 650.665C614.422 656.843 604.601 662.722 594.16 668.281C583.437 673.77 572.141 678.887 560.389 683.568C548.469 688.1 536.23 692.114 523.768 695.57C511.339 698.701 498.867 701.167 486.511 702.882C474.391 704.115 462.566 704.491 451.158 703.918C440.189 702.753 429.782 700.547 420.031 697.287C410.841 693.346 402.371 688.324 394.694 682.233C387.542 675.52 381.124 667.801 375.431 659.153C370.115 650.09 365.361 640.278 361.128 629.827C356.95 619.293 353.153 608.609 349.614 597.931C345.823 587.529 342.093 577.327 338.341 567.44C334.087 558.058 329.701 549.089 325.157 540.583C320.011 532.67 314.681 525.205 309.175 518.176C303.098 511.709 296.9 505.596 290.65 499.764C280.566 491.749 260.416 476.634 250.701 469.15C241.05 461.639 223.888 445.382 216.591 436.468C209.952 427.077 200.014 406.543 196.823 395.483C195.057 387.957 194.021 380.21 193.696 372.329C193.55 364.406 194.122 356.386 195.448 348.34C196.99 340.323 199.262 332.331 202.305 324.404C205.588 316.57 209.643 308.868 214.465 301.328C219.556 293.914 225.434 286.706 232.102 279.722C239.02 272.887 246.572 266.446 254.701 260.396C263.051 254.462 271.95 248.903 281.346 243.69C290.897 238.552 300.941 233.74 311.387 229.201C321.971 224.71 332.94 220.465 344.245 216.452C355.628 212.42 367.318 208.587 379.277 204.947C391.249 201.249 403.474 197.718 415.871 194.355C428.24 190.911 440.782 187.634 453.404 184.536C465.957 181.38 478.584 178.432 491.217 175.701C503.709 172.969 516.158 170.505 528.52 168.384C540.669 166.316 552.683 164.643 564.502 163.428C576.023 162.363 587.304 161.828 598.284 161.867C608.914 162.158 619.212 163.103 629.124 164.737C638.665 166.691 647.818 169.382 656.542 172.833C664.907 176.612 672.901 181.154 680.479 186.465C687.788 192.025 694.778 198.314 701.463 205.273C707.998 212.374 714.35 220.054 720.545 228.262" stroke="#E1F5FE" stroke-opacity="0.12" stroke-linecap="round"/>
<path opacity="0.98" d="M727.166 253.396C732.317 261.479 737.255 269.746 741.993 278.1C746.921 286.273 751.747 294.463 756.487 302.611C766.798 318.038 776.868 333.041 786.429 347.347C797.028 360.321 806.627 372.676 814.707 384.334C822.994 394.92 828.973 405.029 832.162 414.589C834.722 423.422 833.975 431.871 829.773 439.832C824.767 447.415 816.443 454.727 805.102 461.767C793.659 468.944 779.992 476.257 764.715 483.814C753.778 490.022 731.701 503.79 720.864 511.472C714.176 517.048 707.649 522.735 701.309 528.55C695.443 534.709 689.691 540.964 684.037 547.269C673.803 560.773 663.218 574.244 651.861 587.409C640.753 601.213 627.9 614.373 613.104 626.647C597.567 639.035 579.712 650.263 559.839 660.086C539.285 669.475 517.216 677.025 494.495 682.342C472.193 686.385 450.366 687.533 430.025 685.315C411.445 680.998 395.224 672.913 381.913 660.986C376.027 654.252 370.819 646.649 366.273 638.235C362.075 629.49 358.401 620.065 355.203 610.065C352.08 599.995 349.278 589.783 346.74 579.544C343.956 569.517 341.232 559.618 338.484 549.945C331.618 531.859 324.107 515.098 315.91 499.823C305.522 486.405 294.736 473.996 284.058 462.319C271.992 451.613 260.797 440.794 251.02 429.565C240.906 418.433 232.801 406.411 227.035 393.554C221.62 380.486 218.802 366.623 218.777 352.287C219.392 337.975 222.91 323.494 229.386 309.26C232.933 302.287 237.235 295.433 242.306 288.745C247.576 282.194 253.629 275.816 260.457 269.66C267.496 263.649 275.14 258.002 283.339 252.702C291.715 247.541 300.622 242.711 310.002 238.205C329.183 229.467 350.122 221.85 372.363 215.216C394.889 208.639 418.524 202.841 442.837 197.805C467.014 192.675 491.636 188.302 516.203 184.879C540.143 181.563 563.698 179.507 586.346 179.046C607.829 179.223 628.08 181.465 646.669 186.1C663.822 191.793 679.288 200.105 692.925 211.112C699.348 216.95 705.403 223.401 711.111 230.447C716.691 237.595 722.032 245.254 727.153 253.387" stroke="#E1F5FE" stroke-opacity="0.12" stroke-linecap="round"/>
<path opacity="0.65" d="M729.374 277.451C737.698 293.198 745.137 309.317 751.94 325.319C759.782 340.407 767.18 355.051 774.015 368.972C781.852 381.727 788.722 393.77 794.196 404.985C800.061 415.179 803.873 424.689 805.262 433.462C806.341 441.51 804.571 448.964 799.813 455.825C794.589 462.317 786.494 468.439 775.728 474.255C765.02 480.23 752.258 486.315 737.893 492.645C724.543 499.817 710.3 507.705 695.514 516.438C682.442 526.53 669.561 537.143 656.869 548.09C645.45 560.194 633.535 572.33 620.901 584.229C608.563 596.733 594.773 608.622 579.447 619.628C563.718 630.702 546.195 640.539 527.244 648.857C507.998 656.682 487.781 662.554 467.34 666.142C447.555 668.548 428.499 668.147 411.033 664.626C395.291 659.346 381.796 650.705 371.022 638.674C362.019 625.107 355.339 608.665 350.721 589.845C346.377 570.817 342.92 551.456 339.664 532.513C334.885 514.787 329.541 498.036 323.553 482.438C315.549 468.349 307.117 455.142 298.659 442.634C288.825 431.034 279.663 419.522 271.677 407.907C263.244 396.548 256.561 384.671 252.022 372.329C247.701 359.975 245.825 347.136 246.579 334.052C247.902 321.122 251.974 308.17 258.914 295.532C266.577 283.336 277.135 271.678 290.648 260.827C304.92 250.576 321.426 241.634 339.726 233.965C358.54 226.704 378.995 220.521 400.642 215.337C422.509 210.311 445.381 206.097 468.794 202.738C492.045 199.4 515.584 196.917 538.905 195.445C561.592 194.155 583.705 194.13 604.75 195.625C624.682 197.699 643.239 201.66 660.018 207.707C675.468 214.642 689.132 223.822 700.905 235.295C711.739 247.429 721.187 261.571 729.363 277.441" stroke="#E1F5FE" stroke-opacity="0.12" stroke-linecap="round"/>
<path opacity="0.62" d="M727.403 299.947C733.759 315.147 739.089 330.605 743.659 345.849C749.163 360.371 754.114 374.408 758.426 387.703C763.725 400.027 768.077 411.565 771.19 422.174C774.811 431.89 776.652 440.799 776.441 448.831C774.874 459.509 759.018 477.021 744.915 484.483C734.906 489.509 723.007 494.601 709.529 499.905C696.929 505.991 683.251 512.725 668.752 520.205C655.629 528.94 642.379 538.136 629.079 547.685C616.789 558.275 603.95 568.923 590.458 579.332C577.282 590.309 562.935 600.695 547.452 610.184C531.827 619.721 514.919 627.99 497.111 634.699C479.328 640.914 461.042 645.196 442.949 647.225C425.665 648.199 409.33 646.555 394.656 642.065C381.583 636.149 370.666 627.261 362.251 615.42C355.396 602.393 350.663 586.842 347.826 569.178C345.234 551.339 343.482 533.092 341.967 515.081C339.134 497.978 335.858 481.526 332.006 465.963C326.363 451.592 320.307 437.941 314.168 424.93C306.694 412.752 299.712 400.785 293.683 388.93C287.131 377.414 282.097 365.711 278.916 353.846C275.853 342.109 274.992 330.171 276.573 318.232C278.588 306.529 283.185 294.972 290.459 283.827C298.347 273.142 308.969 263.041 322.352 253.767C336.387 245.067 352.468 237.619 370.207 231.383C388.375 225.58 408.015 220.84 428.724 217.116C449.591 213.597 471.328 210.971 493.439 209.224C515.378 207.618 537.421 206.924 559.098 207.25C580.155 207.827 600.506 209.631 619.652 212.825C637.764 216.549 654.419 221.931 669.237 229.121C682.867 237.02 694.676 246.82 704.548 258.518C713.628 270.747 721.218 284.624 727.403 299.947Z" stroke="#E1F5FE" stroke-opacity="0.12" stroke-linecap="round"/>
<path opacity="0.22" d="M721.646 320.45C726.154 334.941 729.549 349.539 732.116 363.851C735.5 377.591 738.22 390.828 740.283 403.307C743.28 414.991 745.384 425.864 746.397 435.783C748.026 449.063 743.3 470.289 736 478.521C730.471 483.477 722.837 487.973 713.193 492.085C703.809 496.385 692.699 500.69 680.065 505.123C668.163 510.284 655.101 515.981 641.021 522.275C628.015 529.701 614.677 537.515 601.088 545.584C588.309 554.616 574.971 563.645 561.055 572.432C547.485 581.738 532.999 590.446 517.759 598.273C502.563 606.124 486.556 612.731 470.107 617.831C453.934 622.461 437.667 625.236 421.931 625.903C407.086 625.684 393.342 623.07 381.282 617.933C370.69 611.653 362.141 602.775 355.871 591.373C350.95 579.051 347.961 564.534 346.713 548.14C345.675 531.599 345.444 514.608 345.505 497.686C344.455 481.436 343.082 465.585 341.281 450.366C337.913 436.1 334.18 422.36 330.314 409.218C325.248 396.786 320.533 384.636 316.556 372.744C312.012 361.253 308.734 349.793 307.038 338.418C305.362 327.279 305.624 316.188 308.02 305.305C310.786 294.725 315.869 284.439 323.381 274.695C331.415 265.393 341.928 256.751 354.982 248.963C368.572 241.741 384.006 235.723 400.912 230.888C418.157 226.476 436.697 223.124 456.13 220.8C475.674 218.722 495.903 217.585 516.38 217.358C536.637 217.335 556.857 218.248 576.565 220.162C595.678 222.361 613.973 225.715 631.014 230.329C647.096 235.387 661.681 241.904 674.46 249.924C686.19 258.509 696.115 268.663 704.144 280.357C711.483 292.429 717.294 305.863 721.646 320.45Z" stroke="#E1F5FE" stroke-opacity="0.12" stroke-linecap="round"/>
<path opacity="0.83" d="M712.561 338.637C715.365 352.249 717.059 365.82 717.857 379.062C719.361 391.849 720.155 404.128 720.283 415.64C721.253 426.528 721.403 436.605 720.597 445.751C719.705 458.076 711.575 477.474 703.614 484.838C697.899 489.295 690.437 493.245 681.273 496.79C672.403 500.526 661.983 504.187 650.159 507.902C638.924 512.267 626.496 517.016 612.964 522.211C600.233 528.387 587.044 534.839 573.545 541.44C560.658 548.886 547.237 556.253 533.364 563.354C519.837 570.904 505.67 577.862 491.037 583.961C476.63 590.098 461.79 595.058 446.903 598.571C432.44 601.717 418.235 603.142 404.797 602.655C392.274 601.443 380.968 598.126 371.323 592.579C362.988 586.19 356.532 577.548 352.177 566.758C348.935 555.294 347.476 541.914 347.593 526.87C347.915 511.717 349.019 496.083 350.441 480.407C350.976 465.204 351.338 450.219 351.376 435.677C350.118 421.825 348.564 408.401 346.898 395.464C344.16 383.13 341.66 371.112 339.756 359.441C337.257 348.166 335.79 337.1 335.644 326.31C335.415 315.801 336.821 305.543 340.087 295.669C343.601 286.122 349.147 277.025 356.842 268.569C364.919 260.557 375.222 253.256 387.782 246.871C400.765 241.004 415.331 236.333 431.143 232.8C447.237 229.686 464.409 227.627 482.291 226.581C500.218 225.827 518.669 226.028 537.183 227.144C555.465 228.479 573.574 230.776 591.079 234.012C608.017 237.536 624.07 242.132 638.844 247.823C652.777 253.898 665.222 261.195 675.924 269.738C685.727 278.714 693.806 288.957 700.047 300.402C705.721 312.135 709.87 324.949 712.561 338.637Z" stroke="#E1F5FE" stroke-opacity="0.12" stroke-linecap="round"/>
<path opacity="0.24" d="M700.673 354.263C701.994 366.86 702.185 379.289 701.497 391.345C701.396 403.058 700.566 414.239 699.086 424.701C698.337 434.679 696.852 443.871 694.551 452.161C691.49 463.449 680.443 481.115 671.902 487.746C662.338 493.555 636.567 503.257 620.598 507.922C609.988 511.585 598.229 515.484 585.36 519.646C573.098 524.652 560.325 529.786 547.239 534.955C534.615 540.839 521.535 546.582 508.15 551.994C495.076 557.825 481.621 563.056 467.97 567.468C454.636 571.932 441.213 575.301 428.025 577.365C415.354 579.149 403.197 579.411 391.989 577.968C381.633 576 372.548 572.196 365.08 566.49C358.723 560.171 354.124 551.962 351.408 541.91C349.6 531.384 349.425 519.221 350.697 505.61C352.147 491.904 354.358 477.73 356.941 463.417C358.829 449.451 360.683 435.546 362.366 421.931C362.968 408.838 363.397 396.035 363.729 383.657C363.139 371.758 362.751 360.177 362.797 349.003C362.302 338.183 362.618 327.69 363.96 317.594C365.182 307.81 367.758 298.409 371.853 289.544C376.1 281.005 382.071 273.028 389.856 265.772C397.93 258.929 407.897 252.891 419.795 247.793C432.027 243.148 445.562 239.699 460.093 237.356C474.831 235.389 490.424 234.487 506.516 234.57C522.612 234.955 539.036 236.266 555.384 238.491C571.505 240.955 587.324 244.329 602.45 248.595C617.081 253.116 630.805 258.596 643.24 265.026C654.97 271.762 665.293 279.518 673.928 288.269C681.851 297.344 688.145 307.419 692.71 318.402C696.828 329.604 699.48 341.609 700.673 354.263Z" stroke="#E1F5FE" stroke-opacity="0.12" stroke-linecap="round"/>
<path opacity="0.65" d="M686.56 367.202C686.598 378.67 685.546 389.883 683.664 400.669C682.249 411.232 680.117 421.252 677.354 430.564C675.227 439.545 672.418 447.794 668.936 455.204C664.125 465.403 650.701 481.354 641.688 487.318C632.006 492.575 607.257 501.118 592.29 505.008C582.286 508.051 571.228 511.175 559.166 514.377C547.531 518.307 535.437 522.194 523.052 526.016C511.039 530.442 498.674 534.637 486.15 538.469C473.916 542.672 461.508 546.269 449.163 549.112C437.137 552.038 425.306 553.968 413.928 554.761C397.997 555.004 371.894 547.894 362.799 540.187C358.163 534.103 355.125 526.428 353.764 517.234C353.156 507.723 354.01 496.819 356.22 484.651C358.548 472.438 361.655 459.766 365.175 446.935C368.156 434.326 371.233 421.695 374.261 409.257C376.447 397.171 378.569 385.286 380.637 373.771C381.958 362.615 383.424 351.769 385.245 341.343C386.568 331.238 388.509 321.51 391.257 312.263C393.843 303.325 397.491 294.843 402.344 286.995C407.283 279.45 413.595 272.548 421.377 266.427C429.382 260.688 438.938 255.772 450.04 251.827C461.408 248.306 473.778 245.906 486.88 244.6C500.111 243.638 513.959 243.696 528.11 244.704C542.248 245.995 556.507 248.204 570.562 251.265C584.406 254.554 597.848 258.697 610.574 263.655C622.849 268.83 634.203 274.839 644.352 281.66C653.896 288.713 662.139 296.601 668.835 305.271C674.969 314.156 679.592 323.824 682.626 334.144C685.321 344.624 686.626 355.694 686.56 367.202Z" stroke="#E1F5FE" stroke-opacity="0.12" stroke-linecap="round"/>
<path opacity="0.35" d="M670.81 377.441C669.8 387.693 667.782 397.64 664.965 407.13C662.546 416.466 659.418 425.274 655.731 433.437C650.638 445.005 638.242 464.219 630.732 471.801C623.024 478.427 603.911 488.492 592.33 492.258C584.539 494.828 575.82 497.11 566.196 499.153C556.816 501.629 546.542 504.032 535.4 506.384C524.538 509.313 513.335 512.08 501.946 514.68C490.815 517.779 479.469 520.578 468.123 522.979C457.021 525.701 445.945 527.861 435.095 529.327C419.52 531.249 391.711 530.212 380.375 526.786C371.155 521.786 360.526 504.973 359.407 493.182C359.723 484.721 361.383 475.086 364.27 464.398C367.264 453.676 371.008 442.548 375.203 431.263C379.009 420.115 383.036 408.883 387.108 397.779C390.544 386.918 394.004 376.219 397.499 365.807C400.368 355.663 403.417 345.816 406.713 336.374C409.575 327.196 412.934 318.428 416.873 310.171C420.637 302.168 425.205 294.705 430.682 287.891C436.193 281.363 442.75 275.512 450.443 270.45C458.265 265.731 467.283 261.852 477.52 258.936C487.929 256.376 499.022 254.905 510.586 254.446C522.242 254.285 534.269 255.112 546.403 256.813C558.507 258.777 570.571 261.605 582.327 265.21C593.89 269.032 604.968 273.63 615.298 278.931C625.284 284.426 634.373 290.644 642.339 297.513C649.829 304.56 656.115 312.271 661.019 320.573C665.489 329.026 668.608 338.061 670.302 347.56C671.744 357.152 671.913 367.16 670.81 377.441Z" stroke="#E1F5FE" stroke-opacity="0.12" stroke-linecap="round"/>
<path opacity="0.93" d="M653.979 385.063C650.493 402.985 643.69 419.447 634.732 433.601C627.339 447.197 617.763 458.41 606.266 466.857C596.032 474.987 583.181 480.94 567.726 484.839C553.032 489.472 535.371 493.109 514.99 495.813C495.321 500.369 474.782 503.818 454.684 505.924C435.375 509.105 416.943 509.894 401.065 507.719C386.803 505.428 376.114 499.308 370.408 489.199C366.935 478.445 368.43 463.664 374.899 445.268C381.732 426.795 390.894 407.128 400.871 387.713C409.004 368.927 417.671 350.642 426.853 333.915C434.671 318.001 444.226 303.71 456.079 291.966C467.856 281.222 482.892 273.213 501.3 268.849C520.153 265.686 540.525 266.469 560.83 270.587C580.963 275.549 600.167 283.607 616.647 294.147C632.033 305.266 643.865 318.799 650.858 334.073C656.595 349.774 657.745 367.071 653.979 385.063Z" stroke="#E1F5FE" stroke-opacity="0.12" stroke-linecap="round"/>
<path opacity="0.42" d="M636.579 390.262C631.92 405.618 624.321 419.526 614.836 431.391C606.501 442.943 596.291 452.438 584.636 459.563C573.965 466.609 561.307 471.728 546.854 474.95C532.925 478.818 516.812 481.529 498.77 483.033C481.156 485.947 463.295 487.553 446.297 487.8C429.887 488.913 414.816 487.94 402.394 484.592C391.248 481.3 383.509 475.014 380.174 465.694C378.438 456.043 381.063 443.271 388.048 427.718C395.319 412.109 404.905 395.573 415.493 379.253C424.822 363.335 434.897 347.845 445.435 333.772C454.921 320.292 465.695 308.358 477.907 298.822C489.982 290.085 504.252 283.928 520.62 281.114C537.272 279.278 554.431 280.966 570.901 285.592C587.232 290.895 602.241 298.918 614.61 309.002C626.188 319.536 634.541 332.024 638.755 345.747C642.093 359.745 641.457 374.852 636.579 390.262Z" stroke="#E1F5FE" stroke-opacity="0.12" stroke-linecap="round"/>
<path opacity="0.88" d="M619.027 393.262C613.695 406.049 605.846 417.507 596.401 427.194C587.722 436.742 577.487 444.553 566.164 450.408C555.545 456.304 543.469 460.546 530.223 463.082C517.337 466.172 502.929 468.031 487.395 468.566C472.065 470.117 457.041 470.305 443.217 469.212C429.792 468.789 417.951 466.607 408.707 462.602C400.348 458.721 395.067 452.605 393.594 444.266C393.172 435.803 396.473 425.02 403.537 412.207C410.808 399.354 420.289 385.877 430.828 372.649C440.585 359.645 451.207 347.075 462.241 335.735C472.55 324.824 483.77 315.319 495.765 307.945C507.616 301.179 520.771 296.703 534.981 295.178C549.355 294.393 563.425 296.631 576.383 301.327C589.214 306.548 600.485 314.06 609.308 323.229C617.597 332.709 623.049 343.724 625.018 355.609C626.456 367.657 624.533 380.439 619.027 393.262Z" stroke="#E1F5FE" stroke-opacity="0.12" stroke-linecap="round"/>
<path opacity="0.43" d="M601.662 394.364C596.134 404.642 588.541 413.758 579.651 421.405C571.218 429.032 561.526 435.227 551.035 439.849C540.982 444.573 529.906 447.926 518.157 449.803C506.617 452.09 494.176 453.21 481.228 453.015C468.373 453.515 456.26 452.729 445.496 450.797C430.56 447.937 412.036 435.438 410.26 425.414C410.768 418.22 414.342 409.396 421.074 399.176C427.953 388.946 436.795 378.373 446.704 368.107C456.136 357.968 466.485 348.266 477.183 339.625C487.405 331.271 498.271 324.13 509.453 318.794C520.502 313.879 532.177 310.893 544.142 310.365C556.167 310.362 567.349 312.807 577.16 317.221C586.9 322.024 595.006 328.643 600.907 336.523C606.489 344.638 609.656 353.898 610.001 363.734C610.028 373.66 607.304 384.078 601.662 394.364Z" stroke="#E1F5FE" stroke-opacity="0.12" stroke-linecap="round"/>
<path opacity="0.14" d="M584.716 393.888C574.41 409.63 557.834 421.564 539.273 428.406C521.635 435.643 500.976 438.861 480.392 437.073C459.85 437.054 443.461 432.375 434.636 424.263C427.1 416.737 428.44 404.569 440.254 389C452.427 373.426 470.757 357.649 490.164 345.235C508.525 333.484 528.886 326.006 548.135 325.979C567.419 327.378 582.157 336.058 589.652 348.641C596.475 361.829 595.317 378.127 584.716 393.888Z" stroke="#E1F5FE" stroke-opacity="0.12" stroke-linecap="round"/>
<path opacity="0.63" d="M568.32 392.125C559.366 403.349 545.715 411.761 530.775 416.485C516.24 421.517 499.89 423.447 484.672 421.432C463.829 418.075 449.718 397.746 460.577 382.001C470.566 370.953 485.438 360.317 501.17 352.374C516.405 344.793 532.81 340.447 547.294 341.401C561.742 343.172 571.683 349.993 575.819 359.376C579.654 369.104 577.437 380.909 568.32 392.125Z" stroke="#E1F5FE" stroke-opacity="0.12" stroke-linecap="round"/>
<path opacity="0.08" d="M552.501 389.356C539.24 403.488 513.467 410.654 493.609 406.674C473.532 404.361 467.481 392.341 481.471 378.4C495.82 364.482 522.873 353.852 542.224 356.066C561.367 359.763 566.104 375.258 552.501 389.356Z" stroke="#E1F5FE" stroke-opacity="0.12" stroke-linecap="round"/>
</svg>
